<svg xmlns="http://www.w3.org/2000/svg"  viewBox="0 0 64 64" width="128px" height="128px"><linearGradient id="HRrb1ePMjF92l8fM2HBnza" x1="16" x2="16" y1="54.563" y2="40.656" gradientTransform="matrix(1 0 0 -1 0 64)" gradientUnits="userSpaceOnUse" spreadMethod="reflect"><stop offset="0" stop-color="#6dc7ff"/><stop offset="1" stop-color="#e6abff"/></linearGradient><path fill="url(#HRrb1ePMjF92l8fM2HBnza)" d="M22,10c-6.627,0-12,5.373-12,12h12V10z"/><linearGradient id="HRrb1ePMjF92l8fM2HBnzb" x1="32" x2="32" y1="58" y2="6" gradientTransform="matrix(1 0 0 -1 0 64)" gradientUnits="userSpaceOnUse" spreadMethod="reflect"><stop offset="0" stop-color="#1a6dff"/><stop offset="1" stop-color="#c822ff"/></linearGradient><path fill="url(#HRrb1ePMjF92l8fM2HBnzb)" d="M54,22h-2c0-5.514-4.486-10-10-10v-2C48.617,10,54,15.383,54,22z M42,14v2 c3.309,0,6,2.691,6,6h2C50,17.589,46.411,14,42,14z M49,51c0-5.375,0-13.481,2.527-16.145C55.582,31.846,58,27.046,58,22 c0-8.822-7.178-16-16-16c-3.647,0-7.163,1.238-9.993,3.504C29.204,7.246,25.713,6,22,6C13.178,6,6,13.178,6,22 c0,5.046,2.418,9.846,6.473,12.855C15,37.519,15,45.625,15,51c0,3.86,3.14,7,7,7s7-3.14,7-7v-8c0-1.654,1.346-3,3-3s3,1.346,3,3v8 c0,3.86,3.14,7,7,7S49,54.86,49,51z M27,43v8c0,2.757-2.243,5-5,5s-5-2.243-5-5c0-6.42,0-14.411-3.156-17.603 c-0.037-0.038-0.077-0.072-0.119-0.103C10.14,30.663,8,26.44,8,22c0-7.72,6.28-14,14-14c3.475,0,6.729,1.248,9.26,3.492 c0.046,0.051,0.097,0.096,0.15,0.135c0.649,0.592,1.79,1.971,1.79,1.971l1.599-1.201c0,0-0.838-1.047-1.297-1.524 C35.935,9.014,38.913,8,42,8c7.72,0,14,6.28,14,14c0,4.44-2.14,8.663-5.725,11.294c-0.042,0.031-0.083,0.065-0.119,0.103 C47,36.589,47,44.58,47,51c0,2.757-2.243,5-5,5s-5-2.243-5-5v-8c0-2.757-2.243-5-5-5S27,40.243,27,43z"/></svg>