<?xml version="1.0" encoding="UTF-8"?>
<svg xmlns="http://www.w3.org/2000/svg" xmlns:xlink="http://www.w3.org/1999/xlink" viewBox="0 0 256 256" width="256px" height="256px">
<g id="surface9131056">
<path style=" stroke:none;fill-rule:nonzero;fill:rgb(71.764708%,34.901962%,29.019609%);fill-opacity:1;" d="M 195.691406 207.753906 C 201.132812 207.753906 205.539062 212.160156 205.539062 217.601562 C 205.539062 223.039062 201.132812 227.445312 195.691406 227.445312 C 190.253906 227.445312 185.847656 223.039062 185.847656 217.601562 C 185.847656 212.160156 190.253906 207.753906 195.691406 207.753906 Z M 195.691406 207.753906 "/>
<path style=" stroke:none;fill-rule:nonzero;fill:rgb(71.764708%,34.901962%,29.019609%);fill-opacity:1;" d="M 109.539062 42.832031 C 113.613281 42.832031 116.921875 46.140625 116.921875 50.214844 C 116.921875 54.292969 113.613281 57.601562 109.539062 57.601562 C 105.460938 57.601562 102.152344 54.292969 102.152344 50.214844 C 102.152344 46.140625 105.460938 42.832031 109.539062 42.832031 Z M 109.539062 42.832031 "/>
<path style=" stroke:none;fill-rule:nonzero;fill:rgb(71.764708%,34.901962%,29.019609%);fill-opacity:1;" d="M 35.691406 60.0625 C 42.492188 60.0625 48 65.570312 48 72.371094 C 48 79.167969 42.492188 84.675781 35.691406 84.675781 C 28.894531 84.675781 23.382812 79.167969 23.382812 72.371094 C 23.382812 65.570312 28.894531 60.0625 35.691406 60.0625 Z M 35.691406 60.0625 "/>
<path style=" stroke:none;fill-rule:nonzero;fill:rgb(90.196079%,22.352941%,31.37255%);fill-opacity:1;" d="M 177.335938 167.179688 C 186.824219 146.90625 183.410156 122.085938 167.089844 105.082031 C 166.816406 104.800781 166.550781 104.523438 166.277344 104.246094 C 161.449219 99.421875 155.953125 95.671875 150.089844 92.988281 C 129.5625 83.597656 104.492188 87.351562 87.597656 104.246094 C 68.875 122.96875 66.285156 151.714844 79.828125 173.207031 C 72.757812 180.277344 30.824219 222.214844 30.769531 222.265625 L 48.257812 239.753906 C 48.3125 239.699219 88.097656 199.914062 97.316406 190.695312 C 118.351562 203.949219 146.324219 201.742188 165.054688 184.097656 C 157.921875 181.761719 151.46875 177.925781 146.0625 172.957031 C 132.476562 181.828125 114.082031 180.304688 102.152344 168.371094 C 88.460938 154.683594 88.460938 132.496094 102.152344 118.804688 C 111.226562 109.730469 124.042969 106.679688 135.636719 109.636719 C 141.527344 111.144531 147.105469 114.195312 151.71875 118.804688 C 151.902344 118.992188 152.078125 119.1875 152.253906 119.375 C 162.496094 130.078125 164.652344 145.660156 158.699219 158.410156 C 163.6875 163.140625 170.152344 166.320312 177.335938 167.179688 Z M 177.335938 167.179688 "/>
<path style=" stroke:none;fill-rule:nonzero;fill:rgb(38.82353%,63.137257%,98.823529%);fill-opacity:1;" d="M 150.089844 92.988281 C 155.824219 88.6875 162.476562 85.546875 169.699219 83.910156 L 169.699219 50.738281 L 181.257812 39.171875 L 192.816406 50.738281 L 192.816406 83.910156 C 215.988281 89.167969 233.285156 109.886719 233.285156 134.644531 C 233.285156 163.378906 209.988281 186.671875 181.257812 186.671875 C 175.601562 186.671875 170.15625 185.765625 165.054688 184.097656 C 157.921875 181.761719 151.46875 177.925781 146.0625 172.957031 C 128.300781 156.632812 124.203125 130.460938 135.636719 109.636719 C 142.003906 111.265625 147.789062 114.652344 152.253906 119.375 C 145.46875 132.269531 147.96875 148.214844 158.699219 158.410156 C 163.6875 163.140625 170.152344 166.320312 177.335938 167.179688 C 197.101562 169.515625 214.03125 154.105469 214.03125 134.648438 C 214.03125 116.546875 199.359375 101.871094 181.257812 101.871094 C 176.183594 101.871094 171.378906 103.027344 167.089844 105.085938 C 162.027344 99.84375 156.378906 95.867188 150.089844 92.988281 Z M 150.089844 92.988281 "/>
<path style=" stroke:none;fill-rule:nonzero;fill:rgb(74.117649%,97.647059%,100%);fill-opacity:1;" d="M 231.382812 180.675781 C 233.421875 180.675781 235.078125 182.332031 235.078125 184.371094 C 235.078125 186.40625 233.421875 188.0625 231.382812 188.0625 C 229.347656 188.0625 227.691406 186.40625 227.691406 184.371094 C 227.691406 182.332031 229.347656 180.675781 231.382812 180.675781 Z M 231.382812 180.675781 "/>
<path style=" stroke:none;fill-rule:nonzero;fill:rgb(74.117649%,97.647059%,100%);fill-opacity:1;" d="M 221.539062 69.90625 C 223.578125 69.90625 225.230469 71.5625 225.230469 73.601562 C 225.230469 75.636719 223.578125 77.292969 221.539062 77.292969 C 219.5 77.292969 217.847656 75.636719 217.847656 73.601562 C 217.847656 71.5625 219.5 69.90625 221.539062 69.90625 Z M 221.539062 69.90625 "/>
<path style=" stroke:none;fill-rule:nonzero;fill:rgb(74.117649%,97.647059%,100%);fill-opacity:1;" d="M 121.847656 228.675781 C 121.847656 230.714844 120.191406 232.371094 118.152344 232.371094 C 116.113281 232.371094 114.460938 230.714844 114.460938 228.675781 C 114.460938 226.636719 116.113281 224.984375 118.152344 224.984375 C 120.191406 224.984375 121.847656 226.636719 121.847656 228.675781 Z M 121.847656 228.675781 "/>
<path style=" stroke:none;fill-rule:nonzero;fill:rgb(74.117649%,97.647059%,100%);fill-opacity:1;" d="M 89.847656 76.0625 C 89.847656 78.101562 88.191406 79.753906 86.152344 79.753906 C 84.113281 79.753906 82.460938 78.101562 82.460938 76.0625 C 82.460938 74.023438 84.113281 72.371094 86.152344 72.371094 C 88.191406 72.371094 89.847656 74.023438 89.847656 76.0625 Z M 89.847656 76.0625 "/>
<path style=" stroke:none;fill-rule:nonzero;fill:rgb(74.117649%,97.647059%,100%);fill-opacity:1;" d="M 62.769531 31.753906 C 62.769531 33.792969 61.117188 35.445312 59.078125 35.445312 C 57.039062 35.445312 55.382812 33.792969 55.382812 31.753906 C 55.382812 29.714844 57.039062 28.0625 59.078125 28.0625 C 61.117188 28.0625 62.769531 29.714844 62.769531 31.753906 Z M 62.769531 31.753906 "/>
<path style=" stroke:none;fill-rule:nonzero;fill:rgb(74.117649%,97.647059%,100%);fill-opacity:1;" d="M 48 125.292969 C 48 127.332031 46.347656 128.984375 44.308594 128.984375 C 42.269531 128.984375 40.617188 127.332031 40.617188 125.292969 C 40.617188 123.253906 42.269531 121.601562 44.308594 121.601562 C 46.347656 121.601562 48 123.253906 48 125.292969 Z M 48 125.292969 "/>
<path style=" stroke:none;fill-rule:nonzero;fill:rgb(74.117649%,97.647059%,100%);fill-opacity:1;" d="M 231.382812 55.136719 C 230.753906 55.136719 230.125 54.898438 229.644531 54.417969 L 223.492188 48.265625 C 222.527344 47.300781 222.527344 45.742188 223.492188 44.78125 L 227.902344 40.371094 L 223.492188 35.957031 C 222.527344 34.996094 222.527344 33.4375 223.492188 32.476562 L 229.644531 26.320312 C 230.605469 25.359375 232.164062 25.359375 233.125 26.320312 C 234.085938 27.28125 234.085938 28.839844 233.125 29.800781 L 228.710938 34.214844 L 233.125 38.628906 C 234.085938 39.589844 234.085938 41.148438 233.125 42.109375 L 228.710938 46.523438 L 233.125 50.9375 C 234.085938 51.898438 234.085938 53.457031 233.125 54.417969 C 232.644531 54.898438 232.015625 55.136719 231.382812 55.136719 Z M 231.382812 55.136719 "/>
<path style=" stroke:none;fill-rule:nonzero;fill:rgb(74.117649%,97.647059%,100%);fill-opacity:1;" d="M 38.15625 163.445312 C 37.957031 163.445312 37.757812 163.421875 37.558594 163.371094 L 27.710938 160.910156 C 26.851562 160.695312 26.171875 160.035156 25.9375 159.179688 C 25.699219 158.324219 25.941406 157.410156 26.566406 156.78125 L 30.699219 152.648438 L 22.902344 151.089844 C 21.570312 150.824219 20.703125 149.527344 20.972656 148.195312 C 21.238281 146.859375 22.535156 146 23.867188 146.261719 L 36.175781 148.722656 C 37.066406 148.902344 37.785156 149.554688 38.046875 150.425781 C 38.3125 151.292969 38.074219 152.238281 37.433594 152.878906 L 33.121094 157.1875 L 38.75 158.597656 C 40.070312 158.925781 40.871094 160.261719 40.542969 161.582031 C 40.261719 162.699219 39.257812 163.445312 38.15625 163.445312 Z M 38.15625 163.445312 "/>
<path style=" stroke:none;fill-rule:nonzero;fill:rgb(27.058825%,53.725493%,99.215686%);fill-opacity:1;" d="M 212.921875 47.875 L 202.148438 60.554688 C 175.84375 34.253906 182.289062 40.695312 181.257812 39.664062 C 180.226562 40.695312 186.667969 34.253906 160.367188 60.554688 L 148.921875 47.875 L 181.257812 16.246094 Z M 212.921875 47.875 "/>
<path style=" stroke:none;fill-rule:nonzero;fill:rgb(82.352942%,0%,25.490198%);fill-opacity:1;" d="M 91.964844 225.179688 L 77.394531 239.753906 L 62.824219 225.179688 L 45.34375 207.699219 L 30.769531 193.128906 L 45.34375 178.558594 L 59.910156 193.128906 L 77.394531 210.613281 Z M 91.964844 225.179688 "/>
</g>
</svg>
