<svg fill="#FFFFFF" xmlns="http://www.w3.org/2000/svg"  viewBox="0 0 50 50" width="50px" height="50px"><path d="M 29.0625 -0.0625 C 28.976563 -0.0507813 28.894531 -0.03125 28.8125 0 C 28.726563 0.0195313 28.640625 0.0507813 28.5625 0.09375 C 28.5625 0.09375 27.339844 0.722656 26.21875 2.125 C 25.214844 3.378906 24.257813 5.324219 24.0625 8.03125 C 23.96875 8.035156 23.875 8.058594 23.78125 8.0625 C 23.125 6.015625 21.472656 4.914063 20.03125 4.4375 C 18.421875 3.90625 16.9375 4 16.9375 4 C 16.90625 4 16.875 4 16.84375 4 C 16.292969 4.058594 15.890625 4.558594 15.953125 5.109375 C 16.011719 5.660156 16.511719 6.0625 17.0625 6 C 17.0625 6 18.207031 5.945313 19.40625 6.34375 C 20.367188 6.664063 21.265625 7.191406 21.75 8.28125 C 12.363281 9.675781 5.074219 16.996094 4.1875 26.15625 C 1.835938 26.558594 0 28.539063 0 31 C 0 33.371094 1.71875 35.277344 3.9375 35.78125 C 5.238281 40.730469 8.242188 44.316406 12 46.59375 C 15.914063 48.964844 20.578125 50 25 50 C 29.421875 50 34.085938 48.964844 38 46.59375 C 41.757813 44.316406 44.761719 40.730469 46.0625 35.78125 C 48.28125 35.277344 50 33.371094 50 31 C 50 28.539063 48.164063 26.558594 45.8125 26.15625 C 44.859375 16.285156 36.460938 8.546875 26.03125 8.0625 C 26.207031 5.8125 27.007813 4.339844 27.78125 3.375 C 28.660156 2.28125 29.4375 1.90625 29.4375 1.90625 C 29.960938 1.78125 30.292969 1.269531 30.191406 0.742188 C 30.089844 0.214844 29.59375 -0.140625 29.0625 -0.0625 Z M 24.8125 10 C 24.917969 10.015625 25.019531 10.015625 25.125 10 C 35.261719 10.0625 43.421875 17.621094 43.9375 27.0625 L 44 28 L 45 28 C 46.667969 28 48 29.332031 48 31 C 48 32.59375 46.785156 33.855469 45.21875 33.96875 L 44.46875 34.03125 L 44.3125 34.75 C 43.230469 39.5 40.492188 42.769531 36.96875 44.90625 C 33.445313 47.042969 29.109375 48 25 48 C 20.890625 48 16.554688 47.042969 13.03125 44.90625 C 9.507813 42.769531 6.769531 39.5 5.6875 34.75 L 5.53125 34.03125 L 4.78125 33.96875 C 3.214844 33.855469 2 32.59375 2 31 C 2 29.332031 3.332031 28 5 28 L 6 28 L 6.0625 27.0625 C 6.542969 18.273438 13.65625 11.125 22.8125 10.125 C 23.03125 10.179688 23.261719 10.15625 23.46875 10.0625 C 23.914063 10.027344 24.355469 10.003906 24.8125 10 Z M 17 26 C 15.34375 26 14 27.34375 14 29 C 14 30.65625 15.34375 32 17 32 C 18.65625 32 20 30.65625 20 29 C 20 27.34375 18.65625 26 17 26 Z M 33 26 C 31.34375 26 30 27.34375 30 29 C 30 30.65625 31.34375 32 33 32 C 34.65625 32 36 30.65625 36 29 C 36 27.34375 34.65625 26 33 26 Z M 18.875 38.1875 C 18.472656 38.234375 18.136719 38.519531 18.027344 38.910156 C 17.917969 39.300781 18.054688 39.71875 18.375 39.96875 C 18.375 39.96875 20.949219 42 25 42 C 29.050781 42 31.625 39.96875 31.625 39.96875 C 32.058594 39.625 32.125 38.992188 31.78125 38.5625 C 31.4375 38.128906 30.804688 38.0625 30.375 38.40625 C 30.375 38.40625 28.40625 40 25 40 C 21.59375 40 19.625 38.40625 19.625 38.40625 C 19.414063 38.234375 19.144531 38.15625 18.875 38.1875 Z"/></svg>