<?xml version="1.0" encoding="UTF-8"?>
<svg xmlns="http://www.w3.org/2000/svg" xmlns:xlink="http://www.w3.org/1999/xlink" viewBox="0 0 150 150" width="150px" height="150px">
<g id="surface9127193">
<path style=" stroke:none;fill-rule:nonzero;fill:rgb(100%,100%,100%);fill-opacity:1;" d="M 74.167969 6 C 59.03125 6 47.078125 10.464844 39.023438 18.722656 C 30.96875 26.976562 27 38.789062 27 52.789062 C 27 58.582031 29.597656 69.753906 31.699219 76.371094 C 30.8125 77.121094 29.964844 77.601562 29.097656 78.921875 C 27.652344 81.117188 26.582031 84.25 27.019531 87.960938 C 27.019531 87.960938 27.023438 87.960938 27.023438 87.960938 C 27.734375 93.976562 29.625 98.046875 31.464844 100.617188 C 32.78125 102.453125 33.550781 102.824219 34.261719 103.332031 C 35.195312 108.648438 38.5625 114.90625 43.582031 121.308594 C 48.886719 128.070312 55.828125 134.554688 63.457031 138.183594 C 66.207031 141.621094 70.273438 144 75 144 C 79.722656 144 83.789062 141.621094 86.539062 138.1875 C 94.148438 134.558594 101.050781 128.058594 106.320312 121.289062 C 111.292969 114.898438 114.628906 108.648438 115.566406 103.347656 C 116.296875 102.84375 117.050781 102.5 118.371094 100.699219 C 120.242188 98.148438 122.164062 94.089844 122.878906 88.066406 C 123.316406 84.34375 122.21875 81.195312 120.761719 78.980469 C 119.886719 77.644531 119.027344 77.144531 118.132812 76.382812 C 120.234375 69.691406 123 59.359375 123 48 C 123 42.78125 121.917969 35.648438 118.390625 29.4375 C 115.082031 23.617188 109.109375 18.828125 100.636719 18.230469 C 96.796875 12.367188 88.460938 6 74.167969 6 Z M 74.167969 12 C 87.65625 12 94.09375 18.273438 96.363281 22.433594 C 96.890625 23.402344 97.902344 24 99 24 C 106.328125 24 110.382812 27.5 113.167969 32.402344 C 115.953125 37.304688 117 43.671875 117 48 C 117 59.121094 113.992188 70.042969 111.957031 76.28125 C 111.722656 77.003906 111.769531 77.789062 112.089844 78.472656 C 108.835938 81.351562 105.292969 83.890625 101.707031 86.148438 L 101.539062 86.03125 C 101.453125 86.15625 101.386719 86.285156 101.304688 86.40625 C 98.777344 87.980469 96.238281 89.441406 93.75 90.648438 C 86.554688 94.152344 79.734375 96 75.929688 96 C 71.8125 96 64.6875 94.226562 57.15625 90.859375 C 50.574219 87.917969 43.59375 83.796875 37.558594 78.800781 C 38.039062 78.035156 38.144531 77.09375 37.851562 76.234375 C 36.035156 71 33 56.628906 33 52.785156 C 33 39.910156 36.566406 29.828125 43.316406 22.910156 C 50.070312 15.992188 60.195312 12 74.167969 12 Z M 97.34375 34.839844 C 97.300781 34.84375 97.257812 34.847656 97.21875 34.851562 C 97.171875 34.855469 97.125 34.863281 97.078125 34.867188 C 97.066406 34.871094 97.054688 34.871094 97.042969 34.875 C 95.976562 35.027344 95.078125 35.742188 94.683594 36.742188 C 94.542969 37.023438 93.328125 39.375 89.988281 42.117188 C 86.445312 45.027344 80.835938 48 72 48 C 66.375 48 59.371094 48.039062 53.296875 50.238281 C 50.257812 51.335938 47.394531 53.035156 45.300781 55.667969 C 43.203125 58.304688 42 61.828125 42 66 C 41.984375 67.082031 42.554688 68.089844 43.488281 68.632812 C 44.421875 69.179688 45.578125 69.179688 46.511719 68.632812 C 47.445312 68.089844 48.015625 67.082031 48 66 C 48 62.921875 48.777344 60.945312 50 59.40625 C 51.21875 57.871094 53.019531 56.71875 55.335938 55.878906 C 59.972656 54.203125 66.464844 54 72 54 C 82.214844 54 89.351562 50.410156 93.796875 46.757812 C 95.324219 45.503906 96.457031 44.269531 97.417969 43.125 C 100.324219 47.785156 105 56.6875 105 66 C 104.984375 67.082031 105.554688 68.089844 106.488281 68.632812 C 107.421875 69.179688 108.578125 69.179688 109.511719 68.632812 C 110.445312 68.089844 111.015625 67.082031 111 66 C 111 50.574219 101.253906 37.835938 100.210938 36.507812 C 99.679688 35.425781 98.546875 34.769531 97.339844 34.839844 Z M 58.5 78 C 56.015625 78 54 80.015625 54 82.5 C 54 84.984375 56.015625 87 58.5 87 C 60.984375 87 63 84.984375 63 82.5 C 63 80.015625 60.984375 78 58.5 78 Z M 91.5 78 C 89.015625 78 87 80.015625 87 82.5 C 87 84.984375 89.015625 87 91.5 87 C 93.984375 87 96 84.984375 96 82.5 C 96 80.015625 93.984375 78 91.5 78 Z M 116.117188 82.921875 C 116.742188 84.082031 117.140625 85.480469 116.917969 87.367188 C 116.316406 92.464844 114.789062 95.445312 113.539062 97.148438 C 112.285156 98.855469 111.597656 99.132812 111.597656 99.132812 C 110.714844 99.601562 110.121094 100.476562 110.015625 101.472656 C 109.730469 104.191406 106.9375 110.179688 102.699219 116.019531 C 101.449219 107.640625 101.0625 98.347656 105.652344 90.75 C 109.253906 88.433594 112.804688 85.859375 116.117188 82.921875 Z M 33.539062 83.25 C 36.414062 85.648438 39.457031 87.84375 42.570312 89.820312 C 47.523438 97.199219 47.457031 106.402344 46.320312 114.796875 C 42.550781 109.355469 40.078125 103.992188 39.816406 101.472656 C 39.710938 100.5 39.136719 99.636719 38.28125 99.164062 C 38.28125 99.164062 37.589844 98.863281 36.347656 97.125 C 35.101562 95.386719 33.578125 92.367188 32.976562 87.257812 L 32.984375 87.257812 C 32.785156 85.582031 33.054688 84.304688 33.539062 83.25 Z M 51.4375 94.734375 C 52.53125 95.273438 53.628906 95.855469 54.707031 96.339844 C 62.765625 99.941406 70.25 102 75.929688 102 C 81.464844 102 88.644531 99.808594 96.378906 96.039062 C 96.613281 95.929688 96.847656 95.78125 97.078125 95.664062 C 94.550781 105.042969 96.253906 114.765625 97.632812 122.226562 C 93.410156 126.738281 88.503906 130.710938 83.707031 132.945312 C 83.210938 133.175781 82.785156 133.542969 82.480469 134 C 80.863281 136.414062 78.144531 138 75 138 C 71.859375 138 69.140625 136.417969 67.523438 134.003906 C 67.21875 133.546875 66.792969 133.179688 66.292969 132.949219 C 61.097656 130.546875 55.820312 126.097656 51.351562 121.148438 C 52.734375 113.570312 54.21875 103.96875 51.4375 94.734375 Z M 51.4375 94.734375 "/>
</g>
</svg>
