<?xml version="1.0" encoding="UTF-8"?>
<svg xmlns="http://www.w3.org/2000/svg" xmlns:xlink="http://www.w3.org/1999/xlink" viewBox="0 0 150 150" width="150px" height="150px">
<g id="surface44918718">
<path style=" stroke:none;fill-rule:nonzero;fill:rgb(100%,100%,100%);fill-opacity:1;" d="M 75 6 C 36.925781 6 6 36.925781 6 75 C 6 113.074219 36.925781 144 75 144 C 113.074219 144 144 113.074219 144 75 C 144 36.925781 113.074219 6 75 6 Z M 75 12 C 109.828125 12 138 40.171875 138 75 C 138 109.828125 109.828125 138 75 138 C 40.171875 138 12 109.828125 12 75 C 12 40.171875 40.171875 12 75 12 Z M 84.375 35.8125 C 72.984375 35.695312 60.128906 38.824219 50.625 49.03125 C 35.519531 65.25 35.988281 81.292969 40.59375 92.53125 C 44.753906 102.667969 51.679688 109.042969 53.0625 110.25 C 53.085938 115.992188 53.601562 121.40625 54.46875 125.90625 C 54.503906 127.089844 55.230469 128.15625 56.332031 128.601562 C 57.433594 129.046875 58.699219 128.8125 59.554688 127.980469 C 60.410156 127.148438 60.691406 125.894531 60.28125 124.78125 C 57.984375 112.757812 58.769531 91.804688 65.4375 79.03125 C 73.6875 63.246094 85.21875 57.65625 85.21875 57.65625 C 86.578125 57.046875 87.292969 55.546875 86.894531 54.105469 C 86.496094 52.675781 85.101562 51.75 83.625 51.9375 C 83.226562 51.984375 82.851562 52.113281 82.5 52.3125 C 82.5 52.3125 69.152344 58.96875 60.09375 76.3125 C 56.167969 83.824219 54.175781 92.953125 53.4375 101.90625 C 51.058594 99.140625 48.164062 95.167969 46.125 90.1875 C 42.164062 80.519531 41.25 67.863281 55.03125 53.0625 C 63.105469 44.390625 74.097656 41.707031 84.375 41.8125 C 93.269531 41.90625 100.921875 44.261719 105.46875 46.3125 C 101.859375 52.875 100.277344 60.398438 99 67.96875 C 97.511719 76.828125 95.835938 85.441406 91.125 92.0625 C 82.335938 104.402344 65.53125 105.375 65.53125 105.375 C 63.878906 105.457031 62.589844 106.863281 62.671875 108.515625 C 62.753906 110.167969 64.160156 111.457031 65.8125 111.375 C 65.8125 111.375 85.242188 110.648438 96 95.53125 C 101.730469 87.480469 103.40625 77.894531 104.90625 69 C 106.40625 60.105469 107.765625 51.902344 111.84375 46.40625 C 112.335938 45.726562 112.523438 44.882812 112.359375 44.0625 C 112.207031 43.253906 111.703125 42.539062 111 42.09375 C 105.773438 39.082031 95.765625 35.929688 84.375 35.8125 Z M 84.375 35.8125 "/>
</g>
</svg>
