<svg fill="#FFFFFF" xmlns="http://www.w3.org/2000/svg"  viewBox="0 0 64 64" width="128px" height="128px"><path d="M 32 2 C 25 2 19.699609 4.0996094 16.099609 8.0996094 L 15 5.5 C 14.8 5 14.200781 4.8 13.800781 5 L 2.5996094 9 C 1.9996094 9.2 1.7003906 9.8007812 1.9003906 10.300781 L 4.9003906 21.099609 L 3.6992188 35.900391 L 3.6992188 36 C 3.7992188 38.2 4.4996094 40.299609 5.5996094 42.099609 L 8 45.900391 C 8.4 46.600391 9.0007812 46.999219 9.8007812 47.199219 C 10.000781 47.199219 10.200391 47.300781 10.400391 47.300781 L 10.5 47.300781 L 11.300781 48.400391 C 12.100781 49.400391 13.3 50 14.5 50 C 15.2 50 15.999219 49.800391 16.699219 49.400391 L 18.300781 48.400391 C 18.800781 49.100391 19.4 49.700391 20 50.400391 L 20 62 L 22 62 L 22 52.199219 L 22.199219 52.400391 C 23.299219 53.400391 24.4 54.099609 25.5 54.599609 C 27.4 55.499609 29.5 56 31.5 56 C 34.7 56 37.9 54.899219 40.5 52.699219 C 40.7 52.599219 40.8 52.399219 41 52.199219 L 41 62 L 43 62 L 43 50.300781 C 43.7 49.600781 44.300391 48.899219 44.900391 48.199219 L 46 49 C 46.7 49.5 47.500391 49.800781 48.400391 49.800781 L 49 49.800781 C 50.1 49.600781 50.999609 49.099219 51.599609 48.199219 L 52.300781 47.199219 L 52.400391 47.199219 C 52.600391 47.199219 52.8 47.199609 53 47.099609 C 53.8 46.899609 54.400781 46.500781 54.800781 45.800781 L 57.199219 42 C 58.299219 40.2 58.999609 38.000781 59.099609 35.800781 L 59 21.099609 L 62 10.199219 C 62.1 9.6992188 61.900391 9.2 61.400391 9 L 51.400391 5 C 51.000391 4.8 50.499219 5.0007812 50.199219 5.3007812 L 48 8.3007812 C 44.5 4.2007812 39.1 2 32 2 z M 32 4 C 37.9 4 42.499609 5.5992188 45.599609 8.6992188 C 41.799609 10.399219 29.899609 15.8 22.099609 19 C 16.499609 21.3 14.000391 25.999609 12.900391 30.099609 C 12.300391 24.299609 12.500781 15.900781 16.800781 10.300781 C 20.000781 6.1007812 25.1 4 32 4 z M 13.400391 7.1992188 L 14.599609 9.8007812 C 7.5996094 20.100781 11.8 36.499219 12 37.199219 C 12.1 37.599219 12.500391 37.900391 12.900391 37.900391 L 13 38.199219 C 13.9 41.199219 15.299609 43.999609 17.099609 46.599609 L 15.599609 47.5 C 14.699609 48.1 13.500391 47.9 12.900391 47 L 12.400391 46.300781 C 13.300391 45.400781 13.5 44.100391 13 42.900391 L 11.599609 40.099609 C 11.099609 39.099609 10.699609 37.900781 10.599609 36.800781 L 9.9003906 31.699219 L 7.9003906 32 L 8.5996094 37.099609 C 8.7996094 38.499609 9.2007813 39.8 9.8007812 41 L 11.199219 43.800781 C 11.399219 44.200781 11.300391 44.700391 10.900391 44.900391 C 10.700391 45.000391 10.499219 45.1 10.199219 45 C 9.9992187 45.2 9.7992187 45.000781 9.6992188 44.800781 L 7.3007812 41 C 6.3007812 39.5 5.7992187 37.700391 5.6992188 35.900391 L 6.9003906 21 L 6.9003906 20.699219 L 4 10.599609 L 13.400391 7.1992188 z M 51.300781 7.1992188 L 59.800781 10.599609 L 57 20.699219 L 57 21 L 57.199219 35.900391 C 57.099219 37.700391 56.499609 39.499609 55.599609 41.099609 L 53.199219 44.900391 C 53.099219 45.100391 52.899609 45.200781 52.599609 45.300781 C 52.399609 45.400781 52.100391 45.299219 51.900391 45.199219 C 51.500391 44.999219 51.399609 44.499609 51.599609 44.099609 L 53 41.300781 C 53.6 40.100781 53.999219 38.700391 54.199219 37.400391 L 54.900391 32.300781 L 52.900391 32 L 52.199219 37.099609 C 51.999219 38.299609 51.699219 39.400391 51.199219 40.400391 L 49.800781 43.199219 C 49.200781 44.299219 49.500391 45.699609 50.400391 46.599609 L 50 47 C 49.3 47.9 48.099219 48.100391 47.199219 47.400391 L 46 46.5 C 47.7 44 49.1 41.200781 50 38.300781 C 50 38.200781 50.099609 38.000391 50.099609 37.900391 C 50.399609 37.800391 50.700781 37.599219 50.800781 37.199219 C 51.000781 36.499219 55.699609 20.2 49.099609 10 L 51.300781 7.1992188 z M 47 10.300781 C 51.4 16.300781 50.999609 25.399219 50.099609 31.199219 C 47.299609 21.899219 38.199609 17.800781 33.599609 16.300781 C 39.499609 13.700781 45 11.200781 47 10.300781 z M 30.699219 17.5 C 31.799219 17.7 35.800781 18.699219 39.800781 21.199219 C 45.400781 24.699219 48.400391 29.400781 48.900391 35.300781 C 48.700391 36.000781 48.499219 36.799219 48.199219 37.699219 C 46.499219 42.999219 43.399219 47.599219 39.199219 51.199219 C 35.599219 54.199219 30.700391 54.900391 26.400391 52.900391 C 25.500391 52.500391 24.5 51.8 23.5 51 C 19.5 47.5 16.500391 42.900781 14.900391 37.800781 L 14.699219 37 C 14.399219 36.2 14.199609 35.500781 14.099609 34.800781 C 14.399609 31.200781 15.900391 23.900391 22.900391 20.900391 C 25.300391 19.900391 27.999219 18.7 30.699219 17.5 z M 18.699219 32.300781 L 17.300781 33.699219 C 17.400781 33.799219 19.6 36 23 36 C 26.4 36 28.599219 33.799219 28.699219 33.699219 L 27.300781 32.300781 C 27.300781 32.300781 25.5 34 23 34 C 20.5 34 18.699219 32.300781 18.699219 32.300781 z M 34.699219 32.300781 L 33.300781 33.699219 C 33.400781 33.799219 35.6 36 39 36 C 42.4 36 44.599219 33.799219 44.699219 33.699219 L 43.300781 32.300781 C 43.300781 32.300781 41.5 34 39 34 C 36.5 34 34.699219 32.300781 34.699219 32.300781 z M 26.300781 45.099609 L 25.699219 47 C 27.699219 47.7 29.9 48 32 48 C 34.1 48 36.300781 47.7 38.300781 47 L 37.699219 45.099609 C 33.999219 46.299609 30.000781 46.299609 26.300781 45.099609 z"/></svg>