<?xml version="1.0" encoding="UTF-8"?>
<svg xmlns="http://www.w3.org/2000/svg" xmlns:xlink="http://www.w3.org/1999/xlink" viewBox="0 0 100 100" width="100px" height="100px">
<g id="surface8717136">
<path style=" stroke:none;fill-rule:nonzero;fill:rgb(100%,100%,100%);fill-opacity:1;" d="M 40.3125 1.195312 C 37.910156 1.195312 35.507812 2.109375 33.6875 3.929688 L 3.542969 34.070312 C 1.21875 36.394531 1.21875 40.230469 3.542969 42.554688 C 5.867188 44.878906 9.703125 44.878906 12.027344 42.554688 L 20.832031 33.753906 C 21.722656 34.15625 22.675781 34.417969 23.667969 34.441406 C 23.679688 34.441406 23.695312 34.433594 23.707031 34.433594 L 30.414062 41.140625 C 30.914062 41.664062 31.660156 41.875 32.363281 41.691406 C 33.0625 41.507812 33.609375 40.960938 33.792969 40.261719 C 33.976562 39.558594 33.765625 38.8125 33.242188 38.3125 L 28.417969 33.488281 C 28.605469 33.421875 28.773438 33.453125 28.960938 33.378906 C 30.015625 32.972656 31.121094 32.238281 32.214844 31.628906 L 36.070312 35.484375 C 36.570312 36.007812 37.316406 36.21875 38.019531 36.035156 C 38.71875 35.851562 39.265625 35.304688 39.449219 34.605469 C 39.632812 33.902344 39.421875 33.15625 38.898438 32.65625 L 35.691406 29.449219 C 36.730469 28.679688 37.753906 27.800781 38.773438 26.875 L 41.726562 29.828125 C 42.226562 30.351562 42.972656 30.5625 43.675781 30.378906 C 44.375 30.195312 44.921875 29.648438 45.105469 28.949219 C 45.289062 28.246094 45.078125 27.5 44.554688 27 L 41.601562 24.046875 C 42.527344 23.027344 43.40625 22.003906 44.175781 20.964844 L 47.382812 24.171875 C 47.882812 24.695312 48.628906 24.90625 49.332031 24.722656 C 50.03125 24.539062 50.578125 23.992188 50.761719 23.292969 C 50.945312 22.589844 50.734375 21.84375 50.210938 21.34375 L 46.355469 17.488281 C 46.964844 16.394531 47.703125 15.285156 48.109375 14.230469 C 48.179688 14.042969 48.152344 13.878906 48.21875 13.691406 L 53.042969 18.515625 C 53.542969 19.039062 54.289062 19.25 54.992188 19.066406 C 55.691406 18.882812 56.238281 18.335938 56.421875 17.636719 C 56.605469 16.933594 56.394531 16.1875 55.871094 15.6875 L 49.164062 8.984375 C 49.164062 8.972656 49.171875 8.953125 49.171875 8.941406 C 49.128906 7.257812 48.59375 5.582031 47.382812 4.371094 L 46.941406 3.929688 C 45.121094 2.109375 42.714844 1.195312 40.3125 1.195312 Z M 40.3125 5.167969 C 41.683594 5.167969 43.054688 5.699219 44.113281 6.757812 L 44.554688 7.199219 C 44.90625 7.550781 45.148438 8.082031 45.171875 9.039062 C 45.195312 9.996094 44.945312 11.308594 44.375 12.796875 C 43.246094 15.726562 40.878906 19.300781 37.613281 22.605469 C 37.511719 22.6875 37.421875 22.777344 37.339844 22.878906 C 34.035156 26.148438 30.457031 28.519531 27.523438 29.648438 C 26.035156 30.21875 24.722656 30.46875 23.765625 30.445312 C 22.808594 30.421875 22.28125 30.179688 21.929688 29.828125 C 21.148438 29.046875 19.882812 29.046875 19.101562 29.828125 L 9.199219 39.726562 C 8.402344 40.523438 7.167969 40.523438 6.371094 39.726562 C 5.574219 38.929688 5.574219 37.695312 6.371094 36.898438 L 36.515625 6.757812 C 37.574219 5.699219 38.941406 5.167969 40.3125 5.167969 Z M 59.152344 13.410156 C 59.980469 14.460938 60.457031 15.742188 60.457031 17.101562 C 60.457031 17.78125 60.320312 18.429688 60.105469 19.050781 C 60.777344 19.621094 61.453125 20.253906 62.132812 20.957031 C 62.507812 21.34375 63.027344 21.5625 63.566406 21.5625 C 79.925781 21.5625 80.753906 40.207031 80.753906 43.941406 C 80.753906 46.671875 80.421875 49.328125 80.070312 52.140625 C 79.105469 59.878906 78.109375 67.863281 84.292969 76.996094 C 81.53125 78.242188 75.789062 80.386719 66.832031 81.714844 C 69.660156 77.011719 73.84375 68.347656 73.84375 57.964844 C 73.84375 42.625 64.667969 34.875 63.636719 34.03125 C 63.285156 33.332031 62.5625 32.902344 61.78125 32.929688 C 61.640625 32.933594 61.5 32.953125 61.363281 32.988281 C 61.242188 33.019531 61.121094 33.058594 61.007812 33.113281 C 60.433594 33.371094 60.011719 33.882812 59.871094 34.496094 C 59.824219 34.664062 57.660156 42.460938 47.617188 45.574219 C 44.367188 46.582031 39.207031 47.285156 34.683594 49.492188 C 30.160156 51.699219 26.207031 55.921875 26.207031 62.910156 C 26.207031 71.171875 29.683594 77.660156 32.507812 81.617188 C 24.058594 80.285156 18.742188 78.222656 16.207031 77.015625 C 22.335938 67.429688 21.125 58.539062 20.054688 50.636719 C 19.667969 47.773438 19.300781 45.070312 19.300781 42.492188 C 19.300781 41.941406 19.34375 41.417969 19.363281 40.882812 L 15.386719 44.859375 C 15.519531 46.925781 15.800781 49.003906 16.09375 51.175781 C 17.1875 59.21875 18.3125 67.53125 11.683594 76.535156 C 11.359375 76.976562 11.230469 77.527344 11.324219 78.066406 C 11.417969 78.605469 11.726562 79.082031 12.183594 79.386719 C 12.488281 79.589844 19.75 84.332031 36.28125 86.171875 C 40.492188 91.226562 45.351562 94 50.027344 94 C 54.726562 94 59.59375 91.21875 63.8125 86.144531 C 80.339844 84.289062 88.023438 79.621094 88.347656 79.421875 C 88.828125 79.125 89.160156 78.632812 89.261719 78.074219 C 89.359375 77.515625 89.21875 76.941406 88.871094 76.492188 C 82.144531 67.847656 83.0625 60.460938 84.039062 52.640625 C 84.390625 49.828125 84.753906 46.921875 84.753906 43.941406 C 84.753906 31.996094 79.40625 18.082031 64.414062 17.578125 C 62.632812 15.824219 60.867188 14.46875 59.152344 13.410156 Z M 62.214844 38.363281 C 64.390625 40.363281 69.84375 45.992188 69.84375 57.964844 C 69.84375 71.933594 61.164062 83.035156 61.164062 83.035156 C 61.117188 83.09375 61.070312 83.15625 61.03125 83.21875 C 57.511719 87.589844 53.613281 90 50.027344 90 C 46.460938 90 42.578125 87.59375 39.0625 83.242188 C 39.007812 83.167969 38.949219 83.097656 38.882812 83.03125 C 38.851562 82.996094 38.816406 82.960938 38.78125 82.929688 C 38.78125 82.929688 30.207031 74.898438 30.207031 62.910156 C 30.207031 57.292969 32.726562 54.898438 36.4375 53.089844 C 40.148438 51.28125 44.992188 50.574219 48.800781 49.394531 C 57.644531 46.652344 60.761719 41.4375 62.214844 38.363281 Z M 41 58 C 39.34375 58 38 59.34375 38 61 C 38 62.65625 39.34375 64 41 64 C 42.65625 64 44 62.65625 44 61 C 44 59.34375 42.65625 58 41 58 Z M 59 58 C 57.34375 58 56 59.34375 56 61 C 56 62.65625 57.34375 64 59 64 C 60.65625 64 62 62.65625 62 61 C 62 59.34375 60.65625 58 59 58 Z M 59 58 "/>
</g>
</svg>
