<svg fill="#FFFFFF" xmlns="http://www.w3.org/2000/svg"  viewBox="0 0 512 512" width="128px" height="128px"><path d="M 188 16 A 27.993 27.993 0 0 0 164.54102 59.277344 A 8 8 0 0 1 162.78516 69.941406 L 162.36133 70.265625 A 7.95 7.95 0 0 1 157.04688 72.029297 C 156.65428 72.014697 156.3281 72 156 72 A 28.0166 28.0166 0 0 0 131.36133 113.32422 L 186.34375 58.34375 A 8 8 0 0 1 199.58984 61.470703 L 202.95703 71.570312 A 48.0563 48.0563 0 0 1 201.98633 104.57617 L 193.29492 126.30469 A 16.0026 16.0026 0 0 0 222.44727 126.88477 A 7.9978 7.9978 0 0 1 232.96484 123.04492 A 55.4884 55.4884 0 0 0 256 128 A 56.0611 56.0611 0 0 0 297.89062 109.14648 A 8.0006 8.0006 0 0 1 310.12305 109.46094 A 28.62 28.62 0 0 0 313.33008 112.86328 L 310.01367 104.57617 A 48.0518 48.0518 0 0 1 309.04492 71.568359 L 312.41016 61.470703 A 8 8 0 0 1 325.65625 58.34375 L 380.64062 113.32617 A 27.696 27.696 0 0 0 384 100 A 28.0741 28.0741 0 0 0 358.02344 72.082031 A 8 8 0 0 1 351.0625 61.396484 A 15.9072 15.9072 0 0 0 352 56 L 352 44 A 28.0314 28.0314 0 0 0 324 16 A 27.6748 27.6748 0 0 0 306.36914 22.253906 A 8 8 0 0 1 301.40039 24.042969 A 65.8748 65.8748 0 0 0 291.9082 25.191406 A 8.0035 8.0035 0 0 1 285.39453 24.335938 A 55.9942 55.9942 0 0 0 226.60547 24.335938 A 8.004 8.004 0 0 1 220.08984 25.191406 A 66.0088 66.0088 0 0 0 210.61914 24.03125 A 66.0088 66.0088 0 0 0 210.58203 24.029297 A 7.9966 7.9966 0 0 1 205.61914 22.244141 A 27.6748 27.6748 0 0 0 188 16 z M 301.03516 24.037109 C 301.09656 24.040009 301.20603 24.047869 301.36523 24.042969 C 301.25523 24.041969 301.14516 24.040509 301.03516 24.037109 z M 72 32 A 24 24 0 0 0 72 80 A 24 24 0 0 0 72 32 z M 444 56 L 434.10156 74.101562 L 416 84 L 434.10156 93.898438 L 444 112 L 453.89844 93.898438 L 472 84 L 453.89844 74.101562 L 444 56 z M 188.43555 78.876953 L 133.65625 133.65625 C 133.58015 133.73195 133.50488 133.80671 133.42578 133.87891 L 35.859375 223.93945 A 12.0357 12.0357 0 0 0 32 232.75586 L 32 242.31836 A 11.9251 11.9251 0 0 0 39.650391 253.50195 L 158.14844 299.58594 A 27.798 27.798 0 0 1 175.76367 322.01172 A 67.6848 67.6848 0 0 1 241.03711 319.57422 L 256 327.05664 L 270.96094 319.57422 A 67.68 67.68 0 0 1 336.23633 322.01172 A 27.7978 27.7978 0 0 1 353.85156 299.58594 L 472.34961 253.50195 A 11.9251 11.9251 0 0 0 480 242.31836 L 480 232.75586 A 12.0331 12.0331 0 0 0 476.13867 223.93945 L 378.57422 133.87891 C 378.49512 133.80671 378.41985 133.73195 378.34375 133.65625 L 323.56445 78.876953 A 32.0357 32.0357 0 0 0 324.86914 98.632812 L 335.42773 125.0293 A 8 8 0 0 1 336 128 L 336 145.44141 L 369.56836 152.15625 A 8.0021 8.0021 0 0 1 373.97852 154.68555 L 437.97852 226.68555 A 8 8 0 0 1 434.5293 239.58984 L 362.5293 263.58984 A 8.0033 8.0033 0 0 1 358.05859 263.76172 L 353.40625 262.59766 A 32.0771 32.0771 0 0 0 319.01953 275.89258 L 318.6582 276.43555 A 8 8 0 0 1 315.57812 279.15625 L 299.57812 287.15625 A 8 8 0 0 1 296 288 L 288 288 A 8 8 0 0 1 280.15625 281.56836 L 274.49219 253.25195 A 63.5752 63.5752 0 0 1 237.50781 253.25195 L 231.84375 281.56836 A 8 8 0 0 1 224 288 L 216 288 A 7.9944 7.9944 0 0 1 213.33789 287.54297 L 197.33789 281.89648 A 8.002 8.002 0 0 1 193.16211 278.50586 L 192.45898 277.34766 A 31.848 31.848 0 0 0 157.34375 262.91016 L 153.93945 263.76172 A 8.0033 8.0033 0 0 1 149.46875 263.58984 L 77.46875 239.58984 A 8 8 0 0 1 74.019531 226.68555 L 138.01953 154.68555 A 8.0021 8.0021 0 0 1 142.42969 152.1543 L 176 145.44141 L 176 128 A 8 8 0 0 1 176.57227 125.0293 L 187.13086 98.632812 A 32.0432 32.0432 0 0 0 188.43555 78.876953 z M 280 80 L 296 80 A 32.0364 32.0364 0 0 1 264 112 L 264 96 A 16.0183 16.0183 0 0 0 280 80 z M 303.82227 125.80273 A 72.0594 72.0594 0 0 1 256 144 A 71.4347 71.4347 0 0 1 232.82227 140.17773 A 32.0044 32.0044 0 0 1 192 147.72266 L 192 152 C 192 200.5234 220.71 240 256 240 C 291.29 240 320 200.5234 320 152 L 320 134.34961 A 43.4569 43.4569 0 0 1 303.82227 125.80273 z M 176.33984 161.69141 L 148.19922 167.31836 L 94.039062 228.24805 L 152.31836 247.67383 L 153.46484 247.38867 A 47.7621 47.7621 0 0 1 205.32031 267.74805 L 217.44141 272 L 222.52344 246.58789 A 83.5654 83.5654 0 0 1 198.68945 224.68164 C 185.79885 207.49474 178.00984 185.41481 176.33984 161.69141 z M 335.66016 161.69141 C 333.99016 185.41481 326.20115 207.49474 313.31055 224.68164 A 83.5643 83.5643 0 0 1 289.47656 246.58789 L 294.51758 271.79688 L 306.56445 265.77344 A 48.11 48.11 0 0 1 357.28906 247.07617 L 359.68164 247.67383 L 417.96094 228.24805 L 363.80273 167.31836 L 335.66016 161.69141 z M 220.4375 161.94727 A 11.9693 11.9693 0 0 0 233.75195 161.94727 L 242.62695 175.26172 A 27.9691 27.9691 0 0 1 227.09375 179.97656 A 27.9569 27.9569 0 0 1 211.5625 175.25977 L 220.4375 161.94727 z M 281.34375 161.94727 A 11.9693 11.9693 0 0 0 294.65625 161.94727 L 303.53125 175.25977 A 27.9611 27.9611 0 0 1 288 179.97852 A 27.9611 27.9611 0 0 1 272.46875 175.25977 L 281.34375 161.94727 z M 208.86914 328.39062 A 51.756 51.756 0 0 0 183.87305 335.80664 L 175.15039 341.03906 L 174.02539 346.66992 A 42.21 42.21 0 0 0 190.00977 388.50781 L 196.80078 393.59961 A 7.999 7.999 0 0 1 200 400 L 200 448 A 7.9992 7.9992 0 0 1 196.4375 454.65625 L 185.75 461.78125 A 21.8607 21.8607 0 0 0 177.50781 472 L 177 496 L 334 496 L 334.49219 472 A 21.8607 21.8607 0 0 0 326.25 461.78125 L 315.5625 454.65625 A 7.9992 7.9992 0 0 1 312 448 L 312 400 A 7.999 7.999 0 0 1 315.19922 393.59961 L 321.99023 388.50586 A 42.21 42.21 0 0 0 337.97656 346.66992 L 336.84961 341.03906 L 328.12695 335.80664 A 51.7548 51.7548 0 0 0 278.11914 333.88672 L 259.57812 343.15625 A 8.003 8.003 0 0 1 252.42188 343.15625 L 233.88281 333.88672 A 51.756 51.756 0 0 0 208.86914 328.39062 z M 68 368 L 58.101562 386.10156 L 40 396 L 58.101562 405.89844 L 68 424 L 77.898438 405.89844 L 96 396 L 77.898438 386.10156 L 68 368 z M 416 392 A 24 24 0 0 0 416 440 A 24 24 0 0 0 416 392 z M 248 440 L 264 440 L 264 456 L 248 456 L 248 440 z"/></svg>