<?xml version="1.0" encoding="UTF-8"?>
<svg xmlns="http://www.w3.org/2000/svg" xmlns:xlink="http://www.w3.org/1999/xlink" viewBox="0 0 256 256" width="256px" height="256px">
<g id="surface44922644">
<path style=" stroke:none;fill-rule:nonzero;fill:rgb(100%,100%,100%);fill-opacity:1;" d="M 36.921875 24.617188 C 30.136719 24.617188 24.617188 30.136719 24.617188 36.921875 C 24.617188 43.710938 30.136719 49.230469 36.921875 49.230469 C 43.710938 49.230469 49.230469 43.710938 49.230469 36.921875 C 49.230469 30.136719 43.710938 24.617188 36.921875 24.617188 Z M 177.230469 24.617188 C 174.511719 24.617188 172.308594 26.820312 172.308594 29.539062 C 172.308594 32.257812 174.511719 34.460938 177.230469 34.460938 C 179.949219 34.460938 182.152344 32.257812 182.152344 29.539062 C 182.152344 26.820312 179.949219 24.617188 177.230469 24.617188 Z M 96.847656 26.039062 C 73.632812 26.039062 54.457031 45.316406 54.457031 69.03125 L 54.457031 71.984375 C 54.457031 82.050781 50.140625 91.660156 42.617188 98.351562 L 31.089844 108.597656 C 26.476562 112.699219 24.910156 119.078125 27.105469 124.847656 C 30.851562 134.699219 43.113281 137.339844 50.667969 130.625 L 66.113281 116.894531 C 65.128906 121.261719 64.605469 125.800781 64.605469 130.460938 C 64.605469 133.179688 66.808594 135.382812 69.527344 135.382812 C 72.246094 135.382812 74.449219 133.179688 74.449219 130.460938 C 74.449219 101.957031 97.640625 78.769531 126.140625 78.769531 C 154.644531 78.769531 177.835938 101.957031 177.835938 130.460938 C 177.835938 158.964844 154.644531 182.152344 126.140625 182.152344 C 123.421875 182.152344 121.21875 184.359375 121.21875 187.078125 C 121.21875 189.796875 123.421875 192 126.140625 192 C 138.285156 192 149.617188 188.464844 159.164062 182.371094 C 158.886719 184.382812 158.746094 186.421875 158.746094 188.476562 C 158.746094 192.097656 155.800781 195.039062 152.179688 195.039062 L 103.382812 195.039062 C 100.664062 195.039062 98.460938 197.246094 98.460938 199.964844 L 98.460938 229.5 C 98.460938 232.21875 100.664062 234.425781 103.382812 234.425781 L 155.132812 234.425781 C 178.839844 234.425781 198.128906 215.136719 198.128906 191.429688 L 198.128906 188.476562 C 198.128906 178.410156 202.445312 168.800781 209.96875 162.113281 L 221.496094 151.867188 C 226.109375 147.765625 227.671875 141.386719 225.480469 135.617188 C 221.734375 125.765625 209.472656 123.121094 201.917969 129.839844 L 186.222656 143.789062 C 194.765625 105.261719 165.269531 68.921875 126.140625 68.921875 C 114.109375 68.921875 102.871094 72.398438 93.378906 78.394531 C 93.683594 76.285156 93.839844 74.144531 93.839844 71.984375 C 93.839844 68.488281 96.625 65.421875 99.800781 65.421875 L 147.390625 65.421875 C 150.109375 65.421875 152.3125 63.21875 152.3125 60.5 L 152.3125 30.960938 C 152.3125 28.242188 150.109375 26.039062 147.390625 26.039062 Z M 36.921875 34.460938 C 38.28125 34.460938 39.382812 35.566406 39.382812 36.921875 C 39.382812 38.28125 38.28125 39.382812 36.921875 39.382812 C 35.566406 39.382812 34.460938 38.28125 34.460938 36.921875 C 34.460938 35.566406 35.566406 34.460938 36.921875 34.460938 Z M 96.847656 35.882812 L 122.773438 35.882812 L 122.773438 55.574219 L 99.800781 55.574219 C 91.234375 55.574219 83.992188 63.089844 83.992188 71.988281 C 83.992188 82.054688 79.679688 91.660156 72.15625 98.351562 L 44.125 123.265625 C 41.765625 125.363281 37.632812 124.835938 36.308594 121.347656 C 36.027344 120.609375 35.292969 118.035156 37.628906 115.957031 L 49.15625 105.710938 C 58.78125 97.15625 64.300781 84.863281 64.300781 71.988281 L 64.300781 69.03125 C 64.300781 50.753906 78.902344 35.882812 96.847656 35.882812 Z M 132.621094 35.882812 L 142.46875 35.882812 L 142.46875 55.574219 L 132.621094 55.574219 Z M 204.308594 49.230469 C 194.804688 49.230469 187.078125 56.960938 187.078125 66.460938 C 187.078125 75.960938 194.808594 83.691406 204.308594 83.691406 C 213.808594 83.691406 221.539062 75.960938 221.539062 66.460938 C 221.539062 56.960938 213.808594 49.230469 204.308594 49.230469 Z M 204.308594 59.078125 C 208.378906 59.078125 211.691406 62.390625 211.691406 66.460938 C 211.691406 70.535156 208.378906 73.847656 204.308594 73.847656 C 200.234375 73.847656 196.921875 70.535156 196.921875 66.460938 C 196.921875 62.390625 200.234375 59.078125 204.308594 59.078125 Z M 34.460938 68.921875 C 31.742188 68.921875 29.539062 71.128906 29.539062 73.847656 C 29.539062 76.566406 31.742188 78.769531 34.460938 78.769531 C 37.179688 78.769531 39.382812 76.566406 39.382812 73.847656 C 39.382812 71.128906 37.179688 68.921875 34.460938 68.921875 Z M 216.617188 93.539062 C 213.894531 93.539062 211.691406 95.742188 211.691406 98.460938 C 211.691406 101.179688 213.894531 103.382812 216.617188 103.382812 C 219.335938 103.382812 221.539062 101.179688 221.539062 98.460938 C 221.539062 95.742188 219.335938 93.539062 216.617188 93.539062 Z M 108.558594 98.460938 C 96.152344 98.460938 86.0625 108.554688 86.0625 120.957031 C 86.0625 141.105469 104.902344 151.851562 122.652344 169.597656 C 124.574219 171.519531 127.691406 171.519531 129.613281 169.597656 C 147.253906 151.953125 166.222656 141.121094 166.222656 120.957031 C 166.222656 108.554688 156.121094 98.460938 143.707031 98.460938 C 135.199219 98.460938 129.933594 102.101562 126.132812 107.070312 C 122.328125 102.101562 117.0625 98.460938 108.558594 98.460938 Z M 108.558594 108.308594 C 114.644531 108.308594 117.71875 110.75 121.726562 118.765625 C 123.539062 122.386719 128.722656 122.390625 130.535156 118.765625 C 134.542969 110.75 137.621094 108.308594 143.707031 108.308594 C 150.691406 108.308594 156.375 113.984375 156.375 120.957031 C 156.375 134.917969 142.289062 143.859375 126.128906 159.238281 C 109.980469 143.859375 95.90625 134.914062 95.90625 120.957031 C 95.90625 113.984375 101.582031 108.308594 108.558594 108.308594 Z M 211.632812 135.960938 C 213.535156 135.914062 215.453125 136.953125 216.277344 139.117188 C 216.558594 139.855469 217.292969 142.429688 214.953125 144.507812 L 203.429688 154.753906 C 193.804688 163.308594 188.285156 175.601562 188.285156 188.476562 L 188.285156 191.429688 C 188.285156 209.710938 173.414062 224.578125 155.132812 224.578125 L 128 224.578125 L 128 204.886719 L 152.179688 204.886719 C 161.230469 204.886719 168.589844 197.527344 168.589844 188.476562 C 168.589844 178.410156 172.90625 168.800781 180.429688 162.113281 L 208.457031 137.199219 C 209.351562 136.402344 210.492188 135.988281 211.632812 135.960938 Z M 49.230469 147.691406 C 46.511719 147.691406 44.308594 149.894531 44.308594 152.617188 C 44.308594 155.335938 46.511719 157.539062 49.230469 157.539062 C 51.949219 157.539062 54.152344 155.335938 54.152344 152.617188 C 54.152344 149.894531 51.949219 147.691406 49.230469 147.691406 Z M 49.230469 182.152344 C 41.085938 182.152344 34.460938 188.78125 34.460938 196.921875 C 34.460938 205.066406 41.085938 211.691406 49.230469 211.691406 C 57.375 211.691406 64 205.066406 64 196.921875 C 64 188.78125 57.375 182.152344 49.230469 182.152344 Z M 49.230469 192 C 51.945312 192 54.152344 194.207031 54.152344 196.921875 C 54.152344 199.636719 51.945312 201.847656 49.230469 201.847656 C 46.515625 201.847656 44.308594 199.636719 44.308594 196.921875 C 44.308594 194.207031 46.515625 192 49.230469 192 Z M 226.460938 201.847656 C 223.742188 201.847656 221.539062 204.050781 221.539062 206.769531 C 221.539062 209.488281 223.742188 211.691406 226.460938 211.691406 C 229.179688 211.691406 231.382812 209.488281 231.382812 206.769531 C 231.382812 204.050781 229.179688 201.847656 226.460938 201.847656 Z M 108.308594 204.886719 L 118.152344 204.886719 L 118.152344 224.578125 L 108.308594 224.578125 Z M 73.847656 216.617188 C 71.128906 216.617188 68.921875 218.820312 68.921875 221.539062 C 68.921875 224.257812 71.128906 226.460938 73.847656 226.460938 C 76.566406 226.460938 78.769531 224.257812 78.769531 221.539062 C 78.769531 218.820312 76.566406 216.617188 73.847656 216.617188 Z M 29.539062 221.539062 C 26.820312 221.539062 24.617188 223.742188 24.617188 226.460938 C 24.617188 229.179688 26.820312 231.382812 29.539062 231.382812 C 32.257812 231.382812 34.460938 229.179688 34.460938 226.460938 C 34.460938 223.742188 32.257812 221.539062 29.539062 221.539062 Z M 201.847656 221.539062 C 199.128906 221.539062 196.921875 223.742188 196.921875 226.460938 C 196.921875 229.179688 199.128906 231.382812 201.847656 231.382812 C 204.566406 231.382812 206.769531 229.179688 206.769531 226.460938 C 206.769531 223.742188 204.566406 221.539062 201.847656 221.539062 Z M 201.847656 221.539062 "/>
</g>
</svg>
