<svg fill="#FFFFFF" xmlns="http://www.w3.org/2000/svg"  viewBox="0 0 480 480" width="240px" height="240px"><path d="M372,182.46v-59.545c0-36.993-23.637-69.589-58.817-81.11c-27.489-9.003-47.123-18.731-67.481-39.416	c-1.799-1.828-4.364-2.683-6.899-2.299C175.142,9.725,117.111,51.137,108.065,121.9c-0.1,0.786-0.064-3.032-0.064,60.559	c0,15.304,10.707,28.167,25.077,31.622c1.494,40.859,26.004,75.946,60.923,92.642v2.107c0,8.805-3.355,16.98-9.349,23.144	l-14.144-10.258c-12.74-9.24-30.777-3.936-36.469,10.757l-6.406,16.531C98.072,361.855,78,391.214,78,424.743V472	c0,4.418,3.582,8,8,8s8-3.582,8-8v-47.257c0-26.626,16.24-50.985,40.635-61.326c29.742,7.576,27.889,7.204,29.281,7.204	c3.57,0,6.825-2.408,7.747-6.027c1.091-4.281-1.496-8.636-5.778-9.727l-21.267-5.417l4.338-11.195	c1.896-4.892,7.904-6.67,12.157-3.586l60.099,43.588c11.237,8.15,26.337,8.151,37.575,0l60.098-43.587	c4.248-3.08,10.259-1.311,12.156,3.586l4.337,11.195l-21.264,5.416c-4.282,1.091-6.869,5.446-5.778,9.727	c1.09,4.279,5.442,6.869,9.727,5.778c32.482-8.274,30.975-7.804,30.975-7.804c4.12-1.596,6.166-6.23,4.57-10.35l-7.647-19.742	c-5.687-14.68-23.717-20.008-36.47-10.759l-14.134,10.251c-1.393-1.441-2.66-3.002-3.782-4.682	c-2.453-3.676-7.421-4.665-11.095-2.212c-3.675,2.453-4.666,7.42-2.212,11.095c1.234,1.849,2.587,3.603,4.046,5.259l-32.921,23.876	c-5.618,4.075-13.168,4.076-18.788,0L197.66,341.41c6.981-7.947,11.295-18.004,12.159-28.626	C278.814,333.103,347,280.534,347,210.734v-65.503c0-30.877-25.121-55.997-55.998-55.997H188.995c-30.875,0-55.995,25.122-55.995,56	v51.863c-5.344-2.772-9-8.289-9-14.638v-59.028c7.803-59.201,54.688-96.301,113.275-106.869	c21.425,20.706,42.162,31.027,70.928,40.448C336.792,66.373,356,92.858,356,122.915v59.545c0,4.418,3.582,8,8,8	S372,186.878,372,182.46z M149,145.234c0-22.056,17.941-40,39.995-40h102.008c22.055,0,39.998,17.942,39.998,39.997v64.895	c0,50.177-40.822,91-91,91s-91-40.822-91-91V145.234z M402,424.743V472c0,4.418-3.582,8-8,8s-8-3.582-8-8v-47.257	c0-16.351-5.984-32.071-16.852-44.265c-2.939-3.299-2.648-8.355,0.65-11.295c3.299-2.939,8.356-2.648,11.295,0.65	C394.575,384.962,402,404.462,402,424.743z M217.768,417.248c-5.958,18.692-16.759,36.31-32.355,50.643	c-1.537,1.412-3.477,2.11-5.411,2.11c-7.233,0-10.796-8.946-5.415-13.89c12.759-11.726,22.497-26.658,27.937-43.722	c1.342-4.209,5.842-6.534,10.052-5.192C216.785,408.538,219.11,413.038,217.768,417.248z M305.413,456.11	c3.253,2.99,3.467,8.051,0.478,11.304c-2.99,3.253-8.05,3.467-11.304,0.477c-14.61-13.427-25.991-30.676-32.355-50.643	c-1.342-4.21,0.983-8.71,5.192-10.052c4.211-1.342,8.71,0.983,10.052,5.192C282.645,428.6,291.997,443.78,305.413,456.11z"/></svg>